<svg xmlns="http://www.w3.org/2000/svg" xmlns:xlink="http://www.w3.org/1999/xlink" width="2000" zoomAndPan="magnify" viewBox="0 0 1500 1499.999933" height="2000" preserveAspectRatio="xMidYMid meet" version="1.0"><defs><g/><clipPath id="bb3d43527f"><path d="M 41.847656 193 L 851 193 L 851 1246 L 41.847656 1246 Z M 41.847656 193 " clip-rule="nonzero"/></clipPath><clipPath id="998186dd28"><path d="M 736 235 L 1457.847656 235 L 1457.847656 1244 L 736 1244 Z M 736 235 " clip-rule="nonzero"/></clipPath></defs><g clip-path="url(#bb3d43527f)"><path fill="#000000" d="M 538.835938 370.5 C 407.375 370.5 275.882812 370.5 139.382812 370.5 C 151.46875 348.617188 160.839844 331.199219 170.660156 314 C 190.75 278.875 210.292969 243.433594 231.847656 209.234375 C 236.726562 201.480469 248.875 193.664062 257.675781 193.664062 C 450.257812 193.535156 642.808594 194.460938 835.394531 195.324219 C 838.902344 195.324219 842.375 196.503906 850.21875 197.9375 C 682.632812 488.320312 516.324219 776.53125 348.101562 1068.089844 C 494.226562 1068.089844 636.816406 1068.089844 783.007812 1068.089844 C 779.660156 1076.546875 778.226562 1082 775.515625 1086.722656 C 747.933594 1134.832031 720.640625 1183.101562 691.882812 1230.507812 C 687.480469 1237.75 676.195312 1245.089844 668.0625 1245.121094 C 464.257812 1245.949219 260.417969 1245.789062 56.578125 1245.757812 C 53.007812 1245.757812 49.402344 1244.863281 41.878906 1243.90625 C 209.625 953.78125 376.222656 665.667969 542.789062 377.550781 C 541.449219 375.222656 540.140625 372.863281 538.835938 370.5 Z M 538.835938 370.5 " fill-opacity="1" fill-rule="nonzero"/></g><g clip-path="url(#998186dd28)"><path fill="#000000" d="M 1457.976562 1243.8125 L 736.804688 1243.8125 C 741.078125 1235.292969 743.949219 1228.660156 747.488281 1222.40625 C 772.804688 1178.21875 798.980469 1134.449219 823.308594 1089.625 C 832.078125 1073.515625 842.695312 1068.472656 860.613281 1068.664062 C 955.757812 1069.527344 1050.871094 1069.113281 1150.097656 1069.113281 C 1146.109375 1060.148438 1143.75 1053.542969 1140.371094 1047.609375 C 1096.976562 972.253906 1053.132812 897.15625 1010.1875 821.640625 C 1007.921875 817.652344 1005.660156 814.496094 1003.042969 811.972656 L 883.476562 602.976562 L 870.945312 580.964844 C 862.78125 566.449219 854.683594 552.253906 846.585938 538.152344 C 841.292969 528.933594 835.902344 519.617188 830.578125 510.394531 L 829.015625 507.683594 C 813.457031 480.886719 797.898438 454.085938 782.847656 426.9375 C 779.371094 420.683594 776.664062 410.15625 779.628906 404.828125 C 810.078125 349.925781 841.644531 295.625 876.144531 235.585938 C 1071.53125 574.074219 1263.796875 907.332031 1457.976562 1243.8125 Z M 1457.976562 1243.8125 " fill-opacity="1" fill-rule="nonzero"/></g><path fill="#000000" d="M 829.082031 507.683594 C 813.519531 480.886719 797.960938 454.085938 782.910156 426.9375 Z M 829.082031 507.683594 " fill-opacity="1" fill-rule="nonzero"/><g fill="#000000" fill-opacity="1"><g transform="translate(1008.508314, 660.597883)"><g><path d="M 4.75 -3.3125 C 4.75 -4.707031 5.066406 -5.765625 5.703125 -6.484375 C 6.335938 -7.203125 7.25 -7.5625 8.4375 -7.5625 C 9.644531 -7.5625 10.585938 -7.203125 11.265625 -6.484375 C 11.941406 -5.765625 12.28125 -4.707031 12.28125 -3.3125 C 12.28125 -1.957031 11.9375 -0.914062 11.25 -0.1875 C 10.5625 0.539062 9.625 0.90625 8.4375 0.90625 C 7.375 0.90625 6.492188 0.578125 5.796875 -0.078125 C 5.097656 -0.734375 4.75 -1.8125 4.75 -3.3125 Z M 4.75 -3.3125 "/></g></g></g></svg>