<svg xmlns="http://www.w3.org/2000/svg" xmlns:xlink="http://www.w3.org/1999/xlink" width="2000" zoomAndPan="magnify" viewBox="0 0 1500 1499.999933" height="2000" preserveAspectRatio="xMidYMid meet" version="1.0"><defs><g/><clipPath id="dfcb0e8f08"><path d="M 41.847656 193 L 851 193 L 851 1246 L 41.847656 1246 Z M 41.847656 193 " clip-rule="nonzero"/></clipPath><clipPath id="9fe6ccfd99"><path d="M 736 235 L 1457.847656 235 L 1457.847656 1244 L 736 1244 Z M 736 235 " clip-rule="nonzero"/></clipPath></defs><g clip-path="url(#dfcb0e8f08)"><path fill="#ffffff" d="M 538.941406 370.4375 C 407.453125 370.4375 275.929688 370.4375 139.402344 370.4375 C 151.492188 348.5625 160.867188 331.148438 170.6875 313.957031 C 190.78125 278.847656 210.332031 243.414062 231.890625 209.226562 C 236.769531 201.476562 248.917969 193.664062 257.722656 193.664062 C 450.347656 193.535156 642.941406 194.460938 835.566406 195.320312 C 839.074219 195.320312 842.550781 196.503906 850.394531 197.9375 C 682.773438 488.214844 516.425781 776.324219 348.164062 1067.78125 C 494.324219 1067.78125 636.945312 1067.78125 783.167969 1067.78125 C 779.816406 1076.230469 778.382812 1081.683594 775.671875 1086.40625 C 748.085938 1134.496094 720.785156 1182.75 692.019531 1230.140625 C 687.621094 1237.378906 676.332031 1244.714844 668.199219 1244.746094 C 464.347656 1245.574219 260.464844 1245.414062 56.582031 1245.382812 C 53.007812 1245.382812 49.40625 1244.492188 41.878906 1243.535156 C 209.660156 953.511719 376.292969 665.5 542.894531 377.488281 C 541.554688 375.160156 540.25 372.796875 538.941406 370.4375 Z M 538.941406 370.4375 " fill-opacity="1" fill-rule="nonzero"/></g><g clip-path="url(#9fe6ccfd99)"><path fill="#ffffff" d="M 1458.28125 1243.4375 L 736.957031 1243.4375 C 741.230469 1234.921875 744.101562 1228.289062 747.640625 1222.039062 C 772.960938 1177.871094 799.144531 1134.113281 823.476562 1089.304688 C 832.25 1073.203125 842.867188 1068.164062 860.792969 1068.355469 C 955.957031 1069.214844 1051.089844 1068.800781 1150.335938 1068.800781 C 1146.347656 1059.839844 1143.988281 1053.238281 1140.609375 1047.304688 C 1097.203125 971.976562 1053.351562 896.90625 1010.394531 821.417969 C 1008.128906 817.429688 1005.867188 814.273438 1003.25 811.753906 L 883.65625 602.832031 L 871.125 580.828125 C 862.960938 566.316406 854.859375 552.125 846.757812 538.027344 C 841.464844 528.8125 836.074219 519.5 830.75 510.285156 L 829.1875 507.574219 C 813.625 480.785156 798.058594 453.996094 783.007812 426.855469 C 779.53125 420.605469 776.820312 410.078125 779.785156 404.753906 C 810.242188 349.867188 841.816406 295.589844 876.324219 235.570312 C 1071.753906 573.9375 1264.058594 907.078125 1458.28125 1243.4375 Z M 1458.28125 1243.4375 " fill-opacity="1" fill-rule="nonzero"/></g><path fill="#ffffff" d="M 829.25 507.574219 C 813.6875 480.785156 798.125 453.996094 783.070312 426.855469 Z M 829.25 507.574219 " fill-opacity="1" fill-rule="nonzero"/><g fill="#ffffff" fill-opacity="1"><g transform="translate(1008.508314, 660.597883)"><g><path d="M 4.75 -3.3125 C 4.75 -4.707031 5.066406 -5.765625 5.703125 -6.484375 C 6.335938 -7.203125 7.25 -7.5625 8.4375 -7.5625 C 9.644531 -7.5625 10.585938 -7.203125 11.265625 -6.484375 C 11.941406 -5.765625 12.28125 -4.707031 12.28125 -3.3125 C 12.28125 -1.957031 11.9375 -0.914062 11.25 -0.1875 C 10.5625 0.539062 9.625 0.90625 8.4375 0.90625 C 7.375 0.90625 6.492188 0.578125 5.796875 -0.078125 C 5.097656 -0.734375 4.75 -1.8125 4.75 -3.3125 Z M 4.75 -3.3125 "/></g></g></g></svg>